<?xml version="1.0"?>
<svg xmlns="http://www.w3.org/2000/svg" height="512px" viewBox="0 0 368 368" width="512px"><path d="m360 160h-24v-56c0-4.425781-3.574219-8-8-8h-56v-8c0-48.519531-39.480469-88-88-88s-88 39.480469-88 88v8h-56c-4.425781 0-8 3.574219-8 8v56h-24c-4.425781 0-8 3.574219-8 8v192c0 4.425781 3.574219 8 8 8h352c4.425781 0 8-3.574219 8-8v-192c0-4.425781-3.574219-8-8-8zm-40 0h-48v-48h48zm-64 192h-32v-88c0-22.054688-17.945312-40-40-40s-40 17.945312-40 40v88h-32v-176h144zm-48 0h-48v-88c0-13.230469 10.769531-24 24-24s24 10.769531 24 24zm0-240v48h-48v-48zm48 0v48h-32v-48zm-112 48h-32v-48h32zm-32-72c0-39.703125 32.296875-72 72-72s72 32.296875 72 72v8h-144zm-64 24h48v48h-48zm-32 64h80v64.886719c-10.175781-10.40625-24.335938-16.886719-40-16.886719s-29.824219 6.480469-40 16.886719zm0 104c0-22.054688 17.945312-40 40-40s40 17.945312 40 40v72h-80zm336 72h-80v-72c0-22.054688 17.945312-40 40-40s40 17.945312 40 40zm-40-128c-15.664062 0-29.824219 6.480469-40 16.886719v-64.886719h80v64.886719c-10.175781-10.40625-24.335938-16.886719-40-16.886719zm0 0" fill="#767676"/></svg>
